/* XPM */
static char *dummy[]={
"24 24 11 1",
". c None",
"c c #214a25",
"b c #000000",
"h c #393939",
"f c #3c793c",
"g c #5c5c5c",
"# c #72a22b",
"e c #804000",
"i c #808080",
"a c #8ac334",
"d c #ff0000",
"....###a................",
"..######a...............",
".###b####a..............",
"###bb#####a.............",
"##########acccccccccc...",
"####dd####efgfffffffff..",
"a###dgg###ehihhhhhhhhhf.",
"aadd#ghg#eehiihhhhhhhhhf",
".###ghhg###gihhhhhhhhhhf",
".aaaghhh####ihhghhhhhhhf",
".cfhhhhh####ehhhhhhhhhhf",
".cfhhhhh####eihhhhhhhhhf",
".cfhhhhhg##eehhhhhhhhhhf",
".cfiehihg##e#ghihhihhihf",
".cfiiiiii####eiiiiiiiiif",
".cfhhhhhh####eehhhhbhghf",
".cfhhhhhhg###eehhhhhge#f",
".cfhhhhhhh###e#ghhggee#f",
".cfhhhhhhh######ege####f",
".cfhhhhhhhg#####ee####gf",
".cfhhhhhhhh#####ee###ghf",
".cfhhhhhhhhgg######ghhhf",
"...fhhhhhhhhigg##gghhhf.",
"....ffffffffffffffffff.."};
